HIERARCHY
ROOT SpineBase
{
  OFFSET 0.000000 0.000000 0.000000
  CHANNELS 6 Xposition Yposition Zposition Zrotation Xrotation Yrotation
  JOINT SpineMid
  {
    OFFSET 0.000000 36.861557 0.000000
    CHANNELS 3 Zrotation Xrotation Yrotation
    JOINT SpineShoulder
    {
      OFFSET 0.143982 27.342059 -0.920496
      CHANNELS 3 Zrotation Xrotation Yrotation
      JOINT Neck
      {
        OFFSET 0.096623 9.026028 -0.689174
        CHANNELS 3 Zrotation Xrotation Yrotation
        JOINT Head
        {
          OFFSET 2.840940 10.899707 7.145097
          CHANNELS 3 Zrotation Xrotation Yrotation
          End Site
          {
            OFFSET 0 0 0
          }
        }
      }
      JOINT ShoulderLeft
      {
        OFFSET 2.066927 -5.586264 -14.230939
        CHANNELS 3 Zrotation Xrotation Yrotation
        JOINT ElbowLeft
        {
          OFFSET 11.293792 -23.996077 -6.479207
          CHANNELS 3 Zrotation Xrotation Yrotation
          JOINT WristLeft
          {
            OFFSET 11.009100 -23.433484 0.966592
            CHANNELS 3 Zrotation Xrotation Yrotation
            JOINT HandLeft
            {
              OFFSET 1.683044 -11.004963 2.539271
              CHANNELS 3 Zrotation Xrotation Yrotation
              JOINT HandTipLeft
              {
                OFFSET 4.061090 -6.408882 0.506800
                CHANNELS 3 Zrotation Xrotation Yrotation
                End Site
                {
                  OFFSET 0 0 0
                }
              }
              JOINT ThumbLeft
              {
                OFFSET -4.368601 -1.794963 -2.102577
                CHANNELS 3 Zrotation Xrotation Yrotation
                End Site
                {
                  OFFSET 0 0 0
                }
              }
            }
          }
        }
      }
      JOINT ShoulderRight
      {
        OFFSET 7.279060 -11.154984 -14.058926
        CHANNELS 3 Zrotation Xrotation Yrotation
        JOINT ElbowRight
        {
          OFFSET 7.944302 -24.827611 -8.030069
          CHANNELS 3 Zrotation Xrotation Yrotation
          JOINT WristRight
          {
            OFFSET -6.255910 -18.171520 -4.797091
            CHANNELS 3 Zrotation Xrotation Yrotation
            JOINT HandRight
            {
              OFFSET -0.557426 -4.960453 7.948460
              CHANNELS 3 Zrotation Xrotation Yrotation
              JOINT HandTipRight
              {
                OFFSET -1.226698 -4.072455 -1.018908
                CHANNELS 3 Zrotation Xrotation Yrotation
                End Site
                {
                  OFFSET 0 0 0
                }
              }
              JOINT ThumbRight
              {
                OFFSET 1.429317 -2.675689 -3.367511
                CHANNELS 3 Zrotation Xrotation Yrotation
                End Site
                {
                  OFFSET 0 0 0
                }
              }
            }
          }
        }
      }
    }
  }
  JOINT HipLeft
  {
    OFFSET -2.642392 1.527068 -6.820566
    CHANNELS 3 Zrotation Xrotation Yrotation
    JOINT KneeLeft
    {
      OFFSET 22.184498 -36.456211 -4.227545
      CHANNELS 3 Zrotation Xrotation Yrotation
      JOINT AnkleLeft
      {
        OFFSET -5.145096 -37.082858 -0.170583
        CHANNELS 3 Zrotation Xrotation Yrotation
        JOINT FootLeft
        {
          OFFSET 12.698342 -1.685327 -5.903697
          CHANNELS 3 Zrotation Xrotation Yrotation
          End Site
          {
            OFFSET 0 0 0
          }
        }
      }
    }
  }
  JOINT HipRight
  {
    OFFSET 3.831387 0.941118 -1.549731
    CHANNELS 3 Zrotation Xrotation Yrotation
    JOINT KneeRight
    {
      OFFSET 5.321283 -39.087422 -1.166026
      CHANNELS 3 Zrotation Xrotation Yrotation
      JOINT AnkleRight
      {
        OFFSET 14.447558 -28.605135 -13.821900
        CHANNELS 3 Zrotation Xrotation Yrotation
        JOINT FootRight
        {
          OFFSET 3.639052 -2.405648 -16.526493
          CHANNELS 3 Zrotation Xrotation Yrotation
          End Site
          {
            OFFSET 0 0 0
          }
        }
      }
    }
  }
}
MOTION
Frames: 10
Frame Time: 0.033333
-37.348488 79.447931 335.560361 -5.714215 6.363863 -56.546492 -1.988285 -0.180774 56.593803 -0.236329 0.352396 -0.358499 -9.148954 6.659198 6.980562 0.000000 0.000000 0.000000 -2.179828 -1.051758 6.484290 6.449456 -2.609186 -3.247294 0.680907 5.149093 -1.184841 2.012686 -10.543264 -0.944163 0.000000 0.000000 0.000000 0.000000 0.000000 0.000000 4.206863 -9.189299 1.396963 6.837610 0.970072 -1.825292 -7.452306 12.626250 -7.003367 16.609433 -7.998145 7.309066 0.000000 0.000000 0.000000 0.000000 0.000000 0.000000 7.278158 2.146162 57.679674 -12.370564 -12.525306 -0.760251 15.842672 13.900093 5.782787 0.000000 0.000000 0.000000 4.594400 6.114386 57.757153 -2.994250 -8.165728 -1.708618 44.466089 -49.834806 124.059150 0.000000 0.000000 0.000000
-37.702053 79.135797 335.387203 -6.783908 7.295473 -56.258804 -2.138771 -0.175349 56.382923 -0.288263 0.364315 -0.420032 -8.127551 4.120556 7.245158 0.000000 0.000000 0.000000 -3.146852 -1.711764 7.267247 8.297963 -1.256298 -2.918839 -0.127904 5.607498 -2.070269 4.238025 -11.689057 0.306307 0.000000 0.000000 0.000000 0.000000 0.000000 0.000000 2.163611 -8.942730 2.626421 9.012606 -0.288659 -3.018607 -6.375197 11.721611 -7.066589 19.921000 -6.501637 6.415347 0.000000 0.000000 0.000000 0.000000 0.000000 0.000000 8.530468 3.155401 57.704497 -12.417078 -13.886452 -0.994329 15.198658 13.802860 0.072230 0.000000 0.000000 0.000000 4.957167 8.318519 57.935090 -5.434604 -11.570687 -2.511287 46.210581 -48.498028 124.821998 0.000000 0.000000 0.000000
-38.352929 78.497248 335.209569 -8.147711 8.197157 -51.828291 -2.033253 0.099633 52.083597 -0.299319 0.378021 -0.476081 -7.356780 2.098582 7.639151 0.000000 0.000000 0.000000 -4.336798 -2.389623 7.984983 10.315687 0.343089 -2.486404 -1.427320 4.936870 -3.408505 6.518707 -8.847137 3.593720 0.000000 0.000000 0.000000 0.000000 0.000000 0.000000 0.679736 -8.765613 3.669832 10.767529 -1.387477 -3.980976 -6.225675 10.225889 -8.295560 21.873318 -5.685330 7.422980 0.000000 0.000000 0.000000 0.000000 0.000000 0.000000 10.072829 4.350978 53.920327 -11.947192 -14.951521 -1.467359 12.013016 13.411043 0.922848 0.000000 0.000000 0.000000 6.915073 12.495231 54.043899 -11.777634 -15.919407 -3.610093 54.586041 -50.792580 126.379843 0.000000 0.000000 0.000000
-39.130409 77.759978 335.019902 -9.596793 9.047212 -45.412628 -1.650514 0.449069 45.833316 -0.277307 0.405866 -0.519639 -6.440924 0.116401 7.924703 0.000000 0.000000 0.000000 -5.681670 -3.186259 8.496652 11.758018 2.367598 -1.931333 0.224406 4.512982 -3.973000 7.015397 -7.997815 5.296112 0.000000 0.000000 0.000000 0.000000 0.000000 0.000000 -0.013658 -8.753794 4.399584 11.892853 -2.159366 -4.605867 -5.822787 10.183367 -8.757951 24.131449 -4.912735 7.326382 0.000000 0.000000 0.000000 0.000000 0.000000 0.000000 11.841592 4.843415 48.261642 -10.134447 -14.856884 -1.838012 6.948066 11.964000 6.189479 0.000000 0.000000 0.000000 10.574251 12.982092 47.610666 -11.208142 -15.287208 -3.691139 49.842915 -46.912125 129.242395 0.000000 0.000000 0.000000
-40.080420 76.834141 334.793209 -10.971333 9.675073 -36.132727 -0.876618 0.756599 36.722205 -0.220172 0.435263 -0.540624 -6.652866 -0.474376 8.485095 0.000000 0.000000 0.000000 -7.490110 -3.507222 9.064016 13.074430 4.195014 -1.452711 2.186179 4.124701 -4.357728 5.339401 -8.467932 5.575637 0.000000 0.000000 0.000000 0.000000 0.000000 0.000000 0.239827 -8.769566 4.698560 12.185566 -2.452307 -4.793665 -5.375087 12.234040 -8.741064 24.702142 -9.975591 9.732845 0.000000 0.000000 0.000000 0.000000 0.000000 0.000000 13.796929 5.269149 40.202343 -8.274396 -14.791982 -2.597137 -0.693821 8.850237 16.018479 0.000000 0.000000 0.000000 15.501089 10.227843 38.066602 -11.319415 -13.455105 -3.254614 64.167951 -51.796704 137.612772 0.000000 0.000000 0.000000
-40.908768 75.786239 334.567734 -12.055286 10.204260 -26.821517 -0.354937 0.848779 27.546189 -0.216097 0.555975 -0.560239 -6.371376 -1.874949 8.863555 0.000000 0.000000 0.000000 -9.556714 -3.989386 9.630733 14.706436 5.636854 -1.138419 4.204685 4.294926 -4.440770 2.380005 -7.784193 6.295468 0.000000 0.000000 0.000000 0.000000 0.000000 0.000000 2.181031 -9.497052 4.483555 11.428775 -2.106621 -4.425898 -4.911354 22.396351 -9.728948 25.296676 -24.354743 17.687096 0.000000 0.000000 0.000000 0.000000 0.000000 0.000000 15.596589 4.865312 32.170531 -5.402582 -14.049306 -3.226570 -9.852701 3.426271 30.342797 0.000000 0.000000 0.000000 19.995307 8.638229 29.009740 -17.372387 -16.623741 -4.297597 51.375646 -49.075150 119.367994 0.000000 0.000000 0.000000
-41.338136 75.145959 334.489273 -12.710598 10.603843 -22.475707 -0.063378 0.730904 23.279759 -0.176943 0.592439 -0.570237 -6.112021 -3.305677 9.142708 0.000000 0.000000 0.000000 -12.059001 -4.078586 10.348309 16.557693 6.362723 -1.119195 5.020831 4.717912 -4.734174 -0.994347 -8.147210 6.055183 0.000000 0.000000 0.000000 0.000000 0.000000 0.000000 2.596492 -9.681787 4.573036 11.466374 -2.139977 -4.447553 -2.869758 36.169302 -10.784160 26.197864 -41.860578 26.004146 0.000000 0.000000 0.000000 0.000000 0.000000 0.000000 16.204643 4.547342 28.735387 -1.143346 -12.517227 -3.522067 -18.877393 -4.231266 47.381954 0.000000 0.000000 0.000000 20.948585 5.702073 24.995661 -19.446134 -18.261832 -4.841306 42.379684 -49.302187 98.972352 0.000000 0.000000 0.000000
-41.384876 74.962500 334.550284 -12.968226 10.877606 -23.061809 -0.064010 0.556009 23.887586 -0.185460 0.610990 -0.582787 -5.958596 -4.195373 9.349693 0.000000 0.000000 0.000000 -14.338445 -3.833160 11.199445 17.669932 6.578847 -1.300578 6.283177 4.637246 -4.872198 -5.513228 -8.202996 5.079369 0.000000 0.000000 0.000000 0.000000 0.000000 0.000000 2.862537 -9.763949 4.654075 11.521938 -2.187068 -4.479055 0.962170 53.108657 -13.976407 37.323957 -57.658102 40.547522 0.000000 0.000000 0.000000 0.000000 0.000000 0.000000 15.675389 4.819975 29.809413 3.535385 -10.698821 -3.669384 -25.552132 -11.960932 63.123109 0.000000 0.000000 0.000000 20.512947 6.281446 25.749053 -24.886344 -23.318099 -7.193232 27.782971 -46.156383 62.905207 0.000000 0.000000 0.000000
-41.293218 75.011430 334.677425 -13.074372 11.097240 -28.606644 -0.060998 0.379993 29.440858 -0.155928 0.660445 -0.578048 -5.889875 -4.655310 9.412177 0.000000 0.000000 0.000000 -16.215658 -3.229821 12.166521 17.568044 6.284498 -1.732665 5.427809 5.928682 -5.607001 -6.134506 -7.847942 6.518074 0.000000 0.000000 0.000000 0.000000 0.000000 0.000000 2.907613 -9.817631 4.694843 11.577203 -2.230026 -4.509168 8.487268 67.603830 -22.075971 54.807539 -66.639918 60.189814 0.000000 0.000000 0.000000 0.000000 0.000000 0.000000 14.538852 5.615472 35.343165 7.601730 -9.030163 -3.608886 -29.137563 -16.903034 74.766725 0.000000 0.000000 0.000000 18.846550 9.102741 31.312622 -31.440013 -28.777758 -10.789622 15.094578 -30.657909 22.551145 0.000000 0.000000 0.000000
-40.983202 75.292785 334.864125 -12.869704 11.165516 -37.025840 0.031114 0.220619 37.834894 -0.003360 0.618659 -0.546233 -6.324618 -4.333919 9.384601 0.000000 0.000000 0.000000 -18.791872 -2.629804 13.025933 18.295345 6.068555 -2.090309 5.368405 6.672436 -5.969239 -8.923061 -10.705446 3.807732 0.000000 0.000000 0.000000 0.000000 0.000000 0.000000 2.466991 -9.616252 4.651938 11.631780 -2.256168 -4.533802 20.627806 75.240611 -37.352884 72.245395 -67.941195 79.357403 0.000000 0.000000 0.000000 0.000000 0.000000 0.000000 12.839163 6.353123 43.434876 10.439446 -8.105791 -3.371174 -30.107133 -18.162303 82.361727 0.000000 0.000000 0.000000 15.498564 12.705231 39.928576 -37.959304 -33.555206 -15.283329 15.472948 -11.869483 -1.785769 0.000000 0.000000 0.000000
